<svg width="52" height="52" viewBox="0 0 52 52" fill="none" xmlns="http://www.w3.org/2000/svg">
<g filter="url(#filter0_d_219_5212)">
<circle cx="26" cy="23" r="16" fill="white"/>
</g>
<path d="M16.75 23C16.75 20.1005 19.1005 17.75 22 17.75C22.4142 17.75 22.75 17.4142 22.75 17C22.75 16.5858 22.4142 16.25 22 16.25C18.2721 16.25 15.25 19.2721 15.25 23C15.25 26.7279 18.2721 29.75 22 29.75C25.7279 29.75 28.75 26.7279 28.75 23C28.75 22.5858 28.4142 22.25 28 22.25C27.5858 22.25 27.25 22.5858 27.25 23C27.25 25.8995 24.8995 28.25 22 28.25C19.1005 28.25 16.75 25.8995 16.75 23Z" fill="#0F5863"/>
<path d="M35.25 23C35.25 25.8995 32.8995 28.25 30 28.25C29.5858 28.25 29.25 28.5858 29.25 29C29.25 29.4142 29.5858 29.75 30 29.75C33.7279 29.75 36.75 26.7279 36.75 23C36.75 19.2721 33.7279 16.25 30 16.25C26.2721 16.25 23.25 19.2721 23.25 23C23.25 23.4142 23.5858 23.75 24 23.75C24.4142 23.75 24.75 23.4142 24.75 23C24.75 20.1005 27.1005 17.75 30 17.75C32.8995 17.75 35.25 20.1005 35.25 23Z" fill="#0F5863"/>
<defs>
<filter id="filter0_d_219_5212" x="0" y="0" width="52" height="52" filterUnits="userSpaceOnUse" color-interpolation-filters="sRGB">
<feFlood flood-opacity="0" result="BackgroundImageFix"/>
<feColorMatrix in="SourceAlpha" type="matrix" values="0 0 0 0 0 0 0 0 0 0 0 0 0 0 0 0 0 0 127 0" result="hardAlpha"/>
<feOffset dy="3"/>
<feGaussianBlur stdDeviation="5"/>
<feComposite in2="hardAlpha" operator="out"/>
<feColorMatrix type="matrix" values="0 0 0 0 0 0 0 0 0 0 0 0 0 0 0 0 0 0 0.05 0"/>
<feBlend mode="normal" in2="BackgroundImageFix" result="effect1_dropShadow_219_5212"/>
<feBlend mode="normal" in="SourceGraphic" in2="effect1_dropShadow_219_5212" result="shape"/>
</filter>
</defs>
</svg>
