<!-- Generated by IcoMoon.io -->
<svg version="1.1" xmlns="http://www.w3.org/2000/svg" width="30" height="32" viewBox="0 0 30 32">
<title>billing</title>
<path fill="none" stroke-linejoin="miter" stroke-linecap="butt" stroke-miterlimit="4" stroke-width="2.1333" stroke="currentColor" d="M23.733 29.577c0.963-0.86 2.415-0.86 3.378 0 0.654 0.584 1.689 0.117 1.689-0.762v-25.63c0-0.88-1.035-1.347-1.689-0.762-0.963 0.86-2.415 0.86-3.378 0s-2.415-0.86-3.378 0c-0.963 0.86-2.415 0.86-3.378 0s-2.415-0.86-3.378 0c-0.963 0.86-2.415 0.86-3.378 0s-2.415-0.86-3.378 0c-0.963 0.86-2.415 0.86-3.378 0-0.654-0.585-1.689-0.118-1.689 0.762v25.63c0 0.88 1.034 1.346 1.689 0.762 0.963-0.86 2.415-0.86 3.378 0s2.415 0.86 3.378 0c0.963-0.86 2.415-0.86 3.378 0s2.415 0.86 3.378 0c0.963-0.86 2.415-0.86 3.378 0s2.415 0.86 3.378 0z"></path>
<path fill="none" stroke-linejoin="miter" stroke-linecap="round" stroke-miterlimit="4" stroke-width="2.1333" stroke="currentColor" d="M8.533 21.28h13.511"></path>
<path fill="none" stroke-linejoin="miter" stroke-linecap="round" stroke-miterlimit="4" stroke-width="2.1333" stroke="currentColor" d="M8.533 16h13.511"></path>
<path fill="none" stroke-linejoin="miter" stroke-linecap="round" stroke-miterlimit="4" stroke-width="2.1333" stroke="currentColor" d="M8.533 10.72h13.511"></path>
</svg>
