<!-- Generated by IcoMoon.io -->
<svg version="1.1" xmlns="http://www.w3.org/2000/svg" width="32" height="32" viewBox="0 0 32 32">
<title>dashboards</title>
<path fill="currentColor" d="M22.095 5.333h-12.19c-2.514 0-4.571 2.057-4.571 4.571v12.19c0 2.514 2.057 4.571 4.571 4.571h12.19c2.514 0 4.571-2.057 4.571-4.571v-12.19c0-2.514-2.057-4.571-4.571-4.571zM9.905 24.914c-1.524 0-2.819-1.295-2.819-2.819v-12.19c0-1.524 1.295-2.819 2.819-2.819h5.333v17.829h-5.333zM24.914 22.095c0 1.524-1.295 2.819-2.819 2.819h-5.105v-4.114h7.924v1.295zM24.914 19.048h-7.924v-3.581h7.924v3.581zM16.991 13.714v-6.629h5.105c1.524 0 2.819 1.295 2.819 2.819v3.809h-7.924z"></path>
</svg>
