<svg width="24" height="24" viewBox="0 0 24 24" fill="currentColor" stroke="currentColor" xmlns="http://www.w3.org/2000/svg">
<path d="M10.7586 5.63409C11.0301 4.86588 11.7628 4.31707 12.622 4.31707C13.4811 4.31707 14.2139 4.86588 14.4853 5.63409C14.6065 5.977 14.9828 6.15674 15.3257 6.03553C15.6686 5.91432 15.8483 5.53809 15.7272 5.19518C15.2754 3.9172 14.0567 3 12.622 3C11.1873 3 9.96852 3.9172 9.51683 5.19518C9.39562 5.53809 9.57535 5.91432 9.91826 6.03553C10.2612 6.15674 10.6374 5.977 10.7586 5.63409Z" stroke-width="0.3"/>
<path d="M4.5 7.17074C4.5 6.80705 4.79484 6.51221 5.15854 6.51221H20.0855C20.4491 6.51221 20.744 6.80705 20.744 7.17074C20.744 7.53444 20.4491 7.82928 20.0855 7.82928H5.15854C4.79484 7.82928 4.5 7.53444 4.5 7.17074Z" stroke-width="0.3"/>
<path d="M6.57789 8.70876C6.94078 8.68457 7.25458 8.95913 7.27877 9.32203L7.68263 15.3798C7.76152 16.5633 7.81774 17.3867 7.94117 18.0063C8.06089 18.6073 8.22801 18.9254 8.46808 19.15C8.70815 19.3745 9.03668 19.5202 9.64429 19.5997C10.2707 19.6816 11.0961 19.6829 12.2822 19.6829H12.9613C14.1473 19.6829 14.9727 19.6816 15.5991 19.5997C16.2067 19.5202 16.5353 19.3745 16.7753 19.15C17.0154 18.9254 17.1825 18.6073 17.3022 18.0063C17.4256 17.3867 17.4819 16.5633 17.5607 15.3798L17.9646 9.32203C17.9888 8.95913 18.3026 8.68457 18.6655 8.70876C19.0284 8.73295 19.303 9.04675 19.2788 9.40964L18.8718 15.5136C18.7968 16.6399 18.7361 17.5497 18.5939 18.2636C18.4461 19.0058 18.1946 19.6258 17.6751 20.1118C17.1557 20.5978 16.5203 20.8074 15.77 20.9056C15.0481 21 14.1363 21 13.0075 21H12.2359C11.1071 21 10.1953 21 9.47346 20.9056C8.72304 20.8074 8.08772 20.5978 7.56828 20.1118C7.04883 19.6258 6.79733 19.0058 6.64947 18.2636C6.50725 17.5497 6.44662 16.6399 6.37155 15.5136L5.96462 9.40964C5.94042 9.04675 6.21499 8.73295 6.57789 8.70876Z" stroke-width="0.3"/>
</svg>
