<svg width="24" height="24" viewBox="0 0 24 24" fill="currentColor" xmlns="http://www.w3.org/2000/svg">
<path d="M20.2284 21.3333C20.0516 21.3333 19.9338 21.2711 19.8159 21.1466L16.5157 17.6622L9.62071 10.3822L6.61518 7.20885L3.315 3.7244C3.07927 3.47551 3.07927 3.10218 3.315 2.85329C3.55073 2.6044 3.90432 2.6044 4.14004 2.85329L7.08664 5.9644C8.55993 5.09329 10.21 4.59551 11.978 4.59551C16.28 4.59551 19.9927 7.51996 21.2892 11.8133C21.3481 11.9377 21.3481 12.0622 21.2892 12.1866C20.6999 14.24 19.4623 16.0444 17.8712 17.3511L20.641 20.2755C20.8767 20.5244 20.8767 20.8977 20.641 21.1466C20.582 21.2711 20.4052 21.3333 20.2284 21.3333ZM14.7478 13.9911L17.0461 16.4177C18.4605 15.2977 19.5802 13.7422 20.1695 12C18.9909 8.32885 15.7496 5.83996 12.0369 5.83996C10.6225 5.83996 9.26712 6.21329 8.02955 6.89774L10.1511 9.13774C10.6815 8.70218 11.3887 8.51551 12.0369 8.51551C13.8638 8.51551 15.396 10.0711 15.396 12.0622C15.3371 12.7466 15.1603 13.4311 14.7478 13.9911ZM10.9761 10.0088L13.9227 13.12C14.0995 12.8088 14.2174 12.3733 14.2174 12C14.2174 10.7555 13.2745 9.69774 12.0369 9.69774C11.6244 9.69774 11.2708 9.82218 10.9761 10.0088ZM11.978 19.4044C7.73489 19.4044 3.96325 16.48 2.66675 12.1866C2.66675 12.0622 2.66675 11.9377 2.66675 11.8133C3.02034 10.6933 3.49179 9.63552 4.19898 8.70218C4.4347 8.39107 4.7883 8.39107 5.02402 8.57774C5.25975 8.7644 5.31868 9.19996 5.14189 9.44885C4.6115 10.2577 4.14004 11.0666 3.84539 12C5.02402 15.6711 8.26528 18.16 11.978 18.16C12.5084 18.16 13.0388 18.0977 13.5691 17.9733C13.8638 17.9111 14.2174 18.16 14.2763 18.4711C14.3353 18.7822 14.0995 19.1555 13.8049 19.2177C13.2156 19.3422 12.6262 19.4044 11.978 19.4044Z" />
</svg>
