<!-- Generated by IcoMoon.io -->
<svg version="1.1" xmlns="http://www.w3.org/2000/svg" width="32" height="32" viewBox="0 0 32 32">
<title>hint</title>
<path opacity="0.01" fill="currentColor" d="M32 0h-32v32h32v-32z"></path>
<path fill="none" stroke-linejoin="round" stroke-linecap="butt" stroke-miterlimit="4" stroke-width="2" stroke="currentColor" d="M16 29.333c3.682 0 7.015-1.492 9.428-3.905s3.905-5.746 3.905-9.428c0-3.682-1.492-7.015-3.905-9.428s-5.746-3.905-9.428-3.905-7.015 1.492-9.428 3.905c-2.413 2.413-3.905 5.746-3.905 9.428s1.492 7.015 3.905 9.428c2.413 2.413 5.746 3.905 9.428 3.905z"></path>
<path fill="none" stroke-linejoin="round" stroke-linecap="round" stroke-miterlimit="4" stroke-width="2" stroke="currentColor" d="M16 19.083v-2.667c2.209 0 4-1.791 4-4s-1.791-4-4-4c-2.209 0-4 1.791-4 4"></path>
<path fill="currentColor" d="M16 25.083c0.921 0 1.667-0.746 1.667-1.667s-0.746-1.667-1.667-1.667-1.667 0.746-1.667 1.667c0 0.92 0.746 1.667 1.667 1.667z"></path>
</svg>
