<!-- Generated by IcoMoon.io -->
<svg version="1.1" xmlns="http://www.w3.org/2000/svg" width="32" height="32" viewBox="0 0 32 32">
<title>open-link</title>
<path fill="currentColor" d="M5.63 29.333c-0.815 0-1.513-0.29-2.093-0.87-0.58-0.581-0.87-1.279-0.87-2.093v-20.741c0-0.815 0.29-1.513 0.87-2.093 0.581-0.58 1.279-0.87 2.093-0.87h8.889c0.818 0 1.482 0.663 1.482 1.482s-0.663 1.481-1.482 1.481h-8.889v20.741h20.741v-8.889c0-0.818 0.663-1.482 1.481-1.482s1.482 0.663 1.482 1.482v8.889c0 0.815-0.29 1.513-0.87 2.093-0.581 0.58-1.279 0.87-2.093 0.87h-20.741zM13.63 20.444c-0.573 0.573-1.501 0.573-2.074 0s-0.573-1.501 0-2.074l12.741-12.741h-3.852c-0.818 0-1.482-0.663-1.482-1.481s0.663-1.482 1.482-1.482h6.222c1.473 0 2.667 1.194 2.667 2.667v6.222c0 0.818-0.663 1.482-1.482 1.482s-1.481-0.663-1.481-1.482v-3.852l-12.741 12.741z"></path>
</svg>
