<!-- Generated by IcoMoon.io -->
<svg version="1.1" xmlns="http://www.w3.org/2000/svg" width="32" height="32" viewBox="0 0 32 32">
<title>plus</title>
<path fill="currentColor" d="M16.418 1.617c-0.449 0-0.881 0.179-1.198 0.496s-0.496 0.749-0.497 1.198v10.993h-10.993c-0.449 0-0.881 0.179-1.198 0.496s-0.496 0.749-0.496 1.198c0 0.449 0.179 0.881 0.496 1.198s0.749 0.496 1.198 0.496h10.993v10.993c0 0.449 0.179 0.881 0.497 1.198s0.749 0.496 1.198 0.496 0.881-0.179 1.198-0.496c0.318-0.318 0.496-0.749 0.496-1.198v-10.993h10.993c0.449 0 0.881-0.179 1.198-0.496s0.496-0.749 0.496-1.198-0.179-0.881-0.496-1.198c-0.318-0.318-0.749-0.496-1.198-0.496h-10.993v-10.993c0-0.449-0.179-0.881-0.496-1.198s-0.749-0.496-1.198-0.496z"></path>
</svg>
