<!-- Generated by IcoMoon.io -->
<svg version="1.1" xmlns="http://www.w3.org/2000/svg" width="32" height="32" viewBox="0 0 32 32">
<title>save</title>
<path stroke-linejoin="miter" stroke-linecap="butt" stroke-miterlimit="4" stroke-width="0.8" stroke="currentColor" fill="currentColor" d="M16.808 3.97c-0.174-0.015-0.348-0.016-0.808-0.016-3.097 0-5.322 0.002-7.015 0.23-1.665 0.224-2.669 0.65-3.41 1.391s-1.168 1.746-1.391 3.41c-0.228 1.693-0.23 3.918-0.23 7.015s0.002 5.322 0.23 7.015c0.224 1.665 0.65 2.669 1.391 3.411 0.669 0.669 1.55 1.081 2.937 1.319v-0.091c-0-1.17-0-2.146 0.104-2.92 0.11-0.818 0.352-1.556 0.945-2.149s1.331-0.835 2.149-0.945c0.775-0.104 1.75-0.104 2.92-0.104h2.74c1.17 0 2.146 0 2.921 0.104 0.818 0.11 1.556 0.352 2.149 0.945s0.835 1.331 0.945 2.149c0.104 0.775 0.104 1.75 0.104 2.92v0.091c1.387-0.239 2.268-0.65 2.937-1.319 0.742-0.742 1.168-1.746 1.391-3.411 0.228-1.693 0.23-3.918 0.23-7.015 0-0.46-0.001-0.634-0.016-0.808-0.075-0.854-0.423-1.696-0.975-2.353-0.112-0.134-0.238-0.261-0.572-0.594l-6.728-6.728c-0.334-0.334-0.461-0.459-0.594-0.572-0.657-0.551-1.499-0.9-2.353-0.975zM21.535 27.955v-0.234c0-1.256-0.002-2.099-0.087-2.728-0.081-0.601-0.22-0.858-0.39-1.028s-0.427-0.309-1.028-0.39c-0.629-0.085-1.472-0.087-2.728-0.087h-2.605c-1.255 0-2.099 0.002-2.728 0.087-0.601 0.081-0.858 0.22-1.028 0.39s-0.309 0.427-0.39 1.028c-0.085 0.629-0.087 1.472-0.087 2.728v0.234c1.466 0.090 3.266 0.091 5.535 0.091s4.069-0.001 5.535-0.091zM16.041 2c0.406-0 0.668-0 0.937 0.023 1.254 0.109 2.475 0.615 3.439 1.425 0.207 0.174 0.396 0.363 0.689 0.656l0.030 0.030 6.758 6.758c0.293 0.293 0.483 0.483 0.656 0.69 0.809 0.964 1.315 2.185 1.425 3.439 0.023 0.269 0.023 0.531 0.023 0.937v0.116c0 3.006 0 5.362-0.247 7.2-0.253 1.881-0.781 3.366-1.946 4.532s-2.65 1.693-4.532 1.946c-1.838 0.247-4.194 0.247-7.2 0.247h-0.15c-3.006 0-5.362 0-7.2-0.247-1.882-0.253-3.366-0.781-4.532-1.946s-1.693-2.65-1.946-4.532c-0.247-1.838-0.247-4.194-0.247-7.2v-0.15c0-3.006-0-5.362 0.247-7.2 0.253-1.882 0.781-3.366 1.946-4.532s2.65-1.693 4.532-1.946c1.838-0.247 4.194-0.247 7.2-0.247h0.116zM8.512 10.791c0-0.539 0.437-0.977 0.977-0.977h7.814c0.539 0 0.977 0.437 0.977 0.977s-0.437 0.977-0.977 0.977h-7.814c-0.539 0-0.977-0.437-0.977-0.977z"></path>
</svg>
