<!-- Generated by IcoMoon.io -->
<svg version="1.1" xmlns="http://www.w3.org/2000/svg" width="32" height="32" viewBox="0 0 32 32">
<title>settings</title>
<path fill="currentColor" d="M15.149 10.419c-3.082 0-5.581 2.499-5.581 5.581s2.499 5.581 5.581 5.581c3.083 0 5.581-2.499 5.581-5.581s-2.499-5.581-5.581-5.581zM11.8 16c0-1.849 1.499-3.349 3.349-3.349s3.349 1.499 3.349 3.349c0 1.849-1.499 3.349-3.349 3.349s-3.349-1.499-3.349-3.349z"></path>
<path fill="currentColor" d="M15.111 0c-0.661 0-1.214 0-1.667 0.031-0.472 0.032-0.918 0.102-1.35 0.281-1.003 0.415-1.8 1.212-2.215 2.215-0.216 0.522-0.275 1.072-0.297 1.67-0.018 0.481-0.261 0.882-0.619 1.089s-0.827 0.216-1.252-0.009c-0.529-0.28-1.035-0.504-1.595-0.578-1.076-0.142-2.165 0.15-3.026 0.811-0.371 0.285-0.654 0.636-0.918 1.029-0.254 0.377-0.53 0.855-0.86 1.428l-0.038 0.065c-0.331 0.573-0.607 1.051-0.807 1.459-0.208 0.425-0.371 0.846-0.432 1.309-0.142 1.076 0.15 2.165 0.811 3.026 0.344 0.448 0.791 0.774 1.298 1.092 0.407 0.256 0.634 0.667 0.634 1.080s-0.226 0.824-0.634 1.080c-0.507 0.318-0.954 0.644-1.298 1.093-0.661 0.861-0.952 1.95-0.811 3.026 0.061 0.464 0.224 0.885 0.432 1.309 0.2 0.408 0.476 0.886 0.807 1.459l0.038 0.065c0.331 0.573 0.607 1.051 0.86 1.428 0.264 0.393 0.547 0.744 0.918 1.029 0.861 0.661 1.95 0.953 3.026 0.811 0.56-0.074 1.066-0.298 1.595-0.578 0.425-0.225 0.894-0.215 1.252-0.008s0.601 0.608 0.619 1.089c0.022 0.598 0.081 1.148 0.297 1.67 0.415 1.003 1.212 1.8 2.215 2.215 0.432 0.179 0.878 0.248 1.35 0.281 0.453 0.031 1.006 0.031 1.667 0.031h0.075c0.662 0 1.214 0 1.667-0.031 0.472-0.032 0.918-0.101 1.35-0.281 1.003-0.415 1.8-1.212 2.215-2.215 0.216-0.522 0.275-1.072 0.297-1.671 0.018-0.481 0.261-0.882 0.619-1.089s0.827-0.216 1.252 0.009c0.529 0.28 1.035 0.504 1.595 0.578 1.076 0.142 2.165-0.15 3.026-0.811 0.371-0.285 0.654-0.636 0.918-1.029 0.253-0.377 0.529-0.855 0.86-1.428l0.038-0.065c0.331-0.573 0.607-1.051 0.807-1.459 0.208-0.425 0.371-0.845 0.432-1.309 0.142-1.076-0.15-2.165-0.811-3.026-0.344-0.448-0.791-0.774-1.298-1.092-0.407-0.256-0.634-0.667-0.634-1.080s0.226-0.824 0.634-1.080c0.507-0.318 0.954-0.644 1.298-1.093 0.661-0.861 0.953-1.95 0.811-3.026-0.061-0.464-0.224-0.885-0.432-1.309-0.2-0.408-0.476-0.886-0.807-1.459l-0.038-0.065c-0.331-0.573-0.607-1.051-0.86-1.428-0.264-0.393-0.547-0.744-0.918-1.029-0.861-0.661-1.95-0.952-3.026-0.811-0.56 0.074-1.066 0.298-1.595 0.578-0.425 0.225-0.894 0.215-1.252 0.008s-0.601-0.608-0.619-1.089c-0.022-0.598-0.081-1.148-0.297-1.67-0.415-1.003-1.212-1.8-2.215-2.215-0.432-0.179-0.878-0.248-1.35-0.281-0.454-0.031-1.006-0.031-1.667-0.031h-0.075zM12.949 2.374c0.115-0.048 0.289-0.091 0.648-0.116 0.368-0.025 0.844-0.026 1.553-0.026s1.184 0.001 1.553 0.026c0.358 0.024 0.533 0.068 0.648 0.116 0.456 0.189 0.818 0.551 1.007 1.007 0.060 0.144 0.109 0.368 0.129 0.899 0.044 1.179 0.653 2.315 1.734 2.939s2.368 0.583 3.412 0.032c0.47-0.249 0.689-0.318 0.843-0.338 0.489-0.064 0.984 0.068 1.375 0.369 0.099 0.076 0.224 0.205 0.424 0.503 0.206 0.306 0.444 0.718 0.799 1.332s0.592 1.026 0.754 1.358c0.158 0.323 0.207 0.496 0.223 0.619 0.064 0.489-0.068 0.984-0.368 1.375-0.095 0.123-0.264 0.278-0.715 0.561-0.999 0.628-1.678 1.723-1.678 2.97s0.679 2.343 1.678 2.971c0.45 0.283 0.62 0.438 0.715 0.561 0.3 0.391 0.433 0.886 0.369 1.375-0.016 0.123-0.066 0.296-0.224 0.619-0.162 0.331-0.4 0.744-0.754 1.358s-0.593 1.025-0.799 1.332c-0.2 0.298-0.325 0.427-0.424 0.503-0.391 0.301-0.886 0.433-1.375 0.369-0.154-0.020-0.373-0.090-0.843-0.338-1.043-0.552-2.331-0.592-3.412 0.032s-1.689 1.759-1.733 2.939c-0.020 0.532-0.069 0.756-0.129 0.9-0.189 0.456-0.551 0.818-1.007 1.007-0.115 0.048-0.289 0.091-0.648 0.116-0.368 0.025-0.844 0.026-1.553 0.026s-1.184-0.001-1.553-0.026c-0.358-0.024-0.533-0.068-0.648-0.116-0.456-0.189-0.818-0.551-1.007-1.007-0.060-0.144-0.109-0.368-0.129-0.9-0.044-1.179-0.653-2.315-1.733-2.939s-2.368-0.583-3.412-0.032c-0.47 0.249-0.689 0.318-0.843 0.338-0.489 0.064-0.984-0.068-1.375-0.369-0.099-0.076-0.224-0.205-0.424-0.503-0.206-0.306-0.444-0.718-0.799-1.332s-0.592-1.026-0.754-1.358c-0.158-0.323-0.207-0.496-0.223-0.619-0.064-0.489 0.068-0.984 0.369-1.375 0.095-0.123 0.264-0.278 0.715-0.561 0.999-0.628 1.678-1.723 1.678-2.971s-0.679-2.343-1.678-2.971c-0.45-0.283-0.62-0.438-0.714-0.561-0.3-0.391-0.433-0.886-0.369-1.375 0.016-0.123 0.065-0.296 0.223-0.619 0.162-0.332 0.4-0.744 0.754-1.358s0.593-1.025 0.799-1.332c0.2-0.298 0.326-0.427 0.424-0.503 0.391-0.3 0.886-0.433 1.375-0.369 0.154 0.020 0.373 0.090 0.843 0.338 1.043 0.551 2.331 0.592 3.412-0.032s1.689-1.759 1.733-2.939c0.020-0.532 0.069-0.756 0.129-0.9 0.189-0.456 0.551-0.818 1.007-1.007z"></path>
</svg>
