<svg width="24" height="24" viewBox="0 0 24 24" fill="currentColor" stroke="none" xmlns="http://www.w3.org/2000/svg">
<path d="M11.9999 8.33337C9.99992 8.33337 8.33325 10 8.33325 12C8.33325 14 9.99992 15.6667 11.9999 15.6667C13.9999 15.6667 15.6666 14 15.6666 12C15.6666 10 13.9999 8.33337 11.9999 8.33337ZM11.9999 14.3334C10.7333 14.3334 9.66659 13.2667 9.66659 12C9.66659 10.7334 10.7333 9.66671 11.9999 9.66671C13.2666 9.66671 14.3333 10.7334 14.3333 12C14.3333 13.2667 13.2666 14.3334 11.9999 14.3334Z"/>
<path d="M22.2 11.8C20.8 7.33337 16.6667 4.33337 12 4.33337C7.33333 4.33337 3.2 7.33337 1.8 11.8C1.73333 11.9334 1.73333 12.0667 1.8 12.2C3.2 16.6667 7.33333 19.6667 12 19.6667C16.6667 19.6667 20.8 16.6667 22.2 12.2C22.2 12.0667 22.2 11.9334 22.2 11.8ZM12 18.3334C8 18.3334 4.46667 15.8 3.13333 12C4.46667 8.20004 8 5.66671 12 5.66671C16 5.66671 19.5333 8.20004 20.8667 12C19.5333 15.8 16 18.3334 12 18.3334Z" />
</svg>
