<!-- Generated by IcoMoon.io -->
<svg version="1.1" xmlns="http://www.w3.org/2000/svg" width="32" height="32" viewBox="0 0 32 32">
<title>whats-new</title>
<path  fill="currentColor" d="M10.51 7.699c-1.552 0-2.811 1.258-2.811 2.811v10.981c0 1.552 1.258 2.811 2.811 2.811h10.981c1.552 0 2.811-1.258 2.811-2.811v-5.49c0-0.469 0.38-0.849 0.85-0.849s0.849 0.38 0.849 0.849v5.49c0 2.491-2.019 4.51-4.51 4.51h-10.981c-2.491 0-4.51-2.019-4.51-4.51v-10.981c0-2.491 2.019-4.51 4.51-4.51h5.49c0.469 0 0.85 0.38 0.85 0.85s-0.38 0.85-0.85 0.85h-5.49z"></path>
<path fill="none" stroke-linejoin="miter" stroke-linecap="butt" stroke-miterlimit="4" stroke-width="1.6" stroke="currentColor" d="M24.345 9.504c0 1.021-0.828 1.848-1.849 1.848s-1.849-0.828-1.849-1.848c0-1.021 0.828-1.848 1.849-1.848s1.849 0.828 1.849 1.848z"></path>
<path  fill="currentColor" d="M11.003 19.065c-0.515 0-0.933 0.418-0.933 0.933s0.418 0.933 0.933 0.933v-1.867zM15.041 20.931c0.515 0 0.933-0.418 0.933-0.933s-0.418-0.933-0.933-0.933v1.867zM11.003 20.931h4.038v-1.867h-4.038v1.867z"></path>
</svg>
